<?xml version="1.0" encoding="UTF-8" standalone="no"?>
<!-- Created with Inkscape (http://www.inkscape.org/) -->

<svg
   version="1.1"
   id="svg1"
   width="20"
   height="45"
   viewBox="0 0 20 45"
   sodipodi:docname="western flyer.svg"
   inkscape:version="1.4 (e7c3feb1, 2024-10-09)"
   xmlns:inkscape="http://www.inkscape.org/namespaces/inkscape"
   xmlns:sodipodi="http://sodipodi.sourceforge.net/DTD/sodipodi-0.dtd"
   xmlns:xlink="http://www.w3.org/1999/xlink"
   xmlns="http://www.w3.org/2000/svg"
   xmlns:svg="http://www.w3.org/2000/svg">
  <defs
     id="defs1">
    <linearGradient
       id="linearGradient5"
       inkscape:collect="always">
      <stop
         style="stop-color:#000000;stop-opacity:1;"
         offset="0"
         id="stop5" />
      <stop
         style="stop-color:#0c0c0c;stop-opacity:0.01424501;"
         offset="1"
         id="stop6" />
    </linearGradient>
    <linearGradient
       id="linearGradient3"
       inkscape:collect="always">
      <stop
         style="stop-color:#ffffff;stop-opacity:1;"
         offset="0"
         id="stop3" />
      <stop
         style="stop-color:#72675e;stop-opacity:0.99715102;"
         offset="1"
         id="stop4" />
    </linearGradient>
    <pattern
       inkscape:collect="always"
       xlink:href="#stripes-grid"
       preserveAspectRatio="xMidYMid"
       id="pattern9"
       patternTransform="matrix(0.0618342,0,0,0.06238576,-14.264527,47.627727)"
       x="0"
       y="0" />
    <pattern
       patternUnits="userSpaceOnUse"
       width="3"
       height="10"
       patternTransform="scale(2)"
       preserveAspectRatio="xMidYMid"
       id="stripes-grid"
       style="fill:#daab81"
       x="0"
       y="0"
       inkscape:label="Stripes grid"
       inkscape:collect="always"
       inkscape:isstock="true">
      <rect
         style="stroke:none"
         x="0"
         y="0"
         width="2"
         height="10"
         id="rect134-4" />
    </pattern>
    <linearGradient
       inkscape:collect="always"
       xlink:href="#linearGradient3"
       id="linearGradient4"
       x1="128.15001"
       y1="195.89616"
       x2="161.15001"
       y2="195.89616"
       gradientUnits="userSpaceOnUse"
       gradientTransform="matrix(0.12477153,0,0,0.12366841,11.693511,-14.264527)" />
    <linearGradient
       inkscape:collect="always"
       xlink:href="#linearGradient5"
       id="linearGradient6"
       x1="236.51662"
       y1="195.7397"
       x2="257.83262"
       y2="195.7397"
       gradientUnits="userSpaceOnUse"
       gradientTransform="matrix(0.12477153,0,0,0.12366841,-14.052984,-14.264527)" />
  </defs>
  <sodipodi:namedview
     id="namedview1"
     pagecolor="#ffffff"
     bordercolor="#000000"
     borderopacity="0.25"
     inkscape:showpageshadow="2"
     inkscape:pageopacity="0.0"
     inkscape:pagecheckerboard="0"
     inkscape:deskcolor="#d1d1d1"
     inkscape:zoom="26.224269"
     inkscape:cx="11.859244"
     inkscape:cy="16.644887"
     inkscape:window-width="1440"
     inkscape:window-height="870"
     inkscape:window-x="0"
     inkscape:window-y="34"
     inkscape:window-maximized="0"
     inkscape:current-layer="svg1" />
  <path
     style="display:inline;opacity:1;fill:url(#pattern9);fill-opacity:1;stroke:#460000;stroke-width:0.8;stroke-opacity:1;stroke-dasharray:none"
     d="m 14.801079,43.516622 c 0.431942,-0.625717 0.364314,-1.410445 0.477863,-2.571888 0.210742,-2.450397 0.173355,-5.41636 0.292256,-8.525862 0.156397,-4.089995 0.243193,-9.145429 0.366346,-12.453495 -9.91e-4,-5.589322 0.07741,-9.07802 -1.583681,-14.3856575 C 13.588511,3.3926558 12.325038,1.0255204 10.148963,0.06711006 7.6749156,1.0255204 6.4114418,3.3926558 5.6460903,5.5797195 3.9849792,10.887357 4.0636384,14.376055 4.0624093,19.965377 c 0.1231529,3.308066 0.2099595,8.3635 0.3663463,12.453495 0.1189007,3.109502 0.081474,6.075465 0.2922563,8.525862 0.1135483,1.161443 0.045891,1.946171 0.4778627,2.571888 0.7318301,1.060161 2.669111,1.472015 4.801106,1.416215 2.1319974,0.0558 4.0692684,-0.356054 4.8010984,-1.416215 z"
     id="path3"
     sodipodi:nodetypes="scscccccscscs"
     inkscape:label="Boat outline" />
  <rect
     style="display:inline;opacity:1;mix-blend-mode:normal;fill:url(#linearGradient4);stroke:#4e0000;stroke-width:0.8;stroke-opacity:1;stroke-dasharray:none"
     id="rect9"
     width="3.9926889"
     height="4.9467363"
     x="27.664274"
     y="7.3774428"
     inkscape:label="Deck hatch"
     rx="0.49908611"
     ry="0.49467364"
     transform="matrix(0,1,1,0,0,0)" />
  <path
     style="display:inline;fill:#ededed;stroke:#4e0000;stroke-width:0.4;stroke-opacity:1;fill-opacity:1;stroke-dasharray:none"
     d="M 13.427852,23.856709 C 11.139628,24.375145 8.8826955,24.423075 6.3930953,23.744048 5.4212038,23.478975 6.1194333,13.969681 6.4488981,11.295252 6.7783926,8.6208225 6.8177817,8.477731 7.56553,7.3521888 8.3132785,6.2266565 11.289572,6.6684513 11.976205,7.46485 c 0.686643,0.7963986 0.634954,0.826319 1.172465,3.436098 0.537502,2.609778 1.12026,12.765199 0.279152,12.955761 z"
     id="path18"
     sodipodi:nodetypes="sszzzzs"
     inkscape:label="Deck house" />
  <ellipse
     style="fill:url(#linearGradient6);stroke:#4e0000;stroke-width:0.124219;stroke-opacity:1"
     id="path4"
     cx="16.434843"
     cy="9.8508148"
     rx="1.2477152"
     ry="0.86567885"
     inkscape:label="Stack"
     transform="matrix(0,1,1,0,0,0)" />
  <path
     style="fill:#ededed;fill-opacity:1;stroke:#4e0000;stroke-opacity:0.997423;stroke-width:1.2;stroke-dasharray:none"
     d="m 6.85,9.65 0.70,-1.50 4.62,0.025 0.61,1.48"
     id="path1"
     sodipodi:nodetypes="cccc"
     inkscape:label="Flybridge" />
</svg>
